<svg width="24" height="24" viewBox="0 0 24 24" fill="none" xmlns="http://www.w3.org/2000/svg">
<g clip-path="url(#clip0_271_1261)">
<path d="M16 9.00003C15.09 9.00003 14.23 9.18003 13.43 9.50003L12.73 6.45003L16.62 2.56002C17.2 2.00003 17.2 1.03002 16.62 0.440025C16.04 -0.149975 15.08 -0.145975 14.5 0.440025L10.61 4.33003L1.41 2.21003L0 3.62003L7.43 7.50003L3.54 11.4L1.06 11.05L0 12.11L3.18 13.87L4.95 17.06L6 16L5.66 13.5L9.55 9.63003L10.57 11.59C9.73501 12.6162 9.20813 13.858 9.05049 15.1716C8.89286 16.4851 9.11095 17.8163 9.67944 19.0109C10.2479 20.2055 11.1435 21.2143 12.2623 21.9204C13.381 22.6265 14.6771 23.0008 16 23C19.87 23 23 19.87 23 16C23 12.13 19.87 9.00003 16 9.00003ZM16 21C13.24 21 11 18.76 11 16C11 13.24 13.24 11 16 11C18.76 11 21 13.24 21 16C21 18.76 18.76 21 16 21ZM16.5 16.25V12H15V17L18.61 19.16L19.36 17.94L16.5 16.25Z" fill="#05073D"/>
</g>
<defs>
<clipPath id="clip0_271_1261">
<rect width="24" height="24" fill="white"/>
</clipPath>
</defs>
</svg>
