<svg width="50" height="50" viewBox="0 0 50 50" fill="none" xmlns="http://www.w3.org/2000/svg">
<rect width="50" height="50" rx="12" fill="#8C387C"/>
<g clip-path="url(#clip0_277_1778)">
<path d="M19 13.75C19 13.5511 18.921 13.3603 18.7803 13.2197C18.6397 13.079 18.4489 13 18.25 13C18.0511 13 17.8603 13.079 17.7197 13.2197C17.579 13.3603 17.5 13.5511 17.5 13.75V14.5H16C15.2044 14.5 14.4413 14.8161 13.8787 15.3787C13.3161 15.9413 13 16.7044 13 17.5V19H37V17.5C37 16.7044 36.6839 15.9413 36.1213 15.3787C35.5587 14.8161 34.7956 14.5 34 14.5H32.5V13.75C32.5 13.5511 32.421 13.3603 32.2803 13.2197C32.1397 13.079 31.9489 13 31.75 13C31.5511 13 31.3603 13.079 31.2197 13.2197C31.079 13.3603 31 13.5511 31 13.75V14.5H19V13.75ZM37 34V20.5H13V34C13 34.7956 13.3161 35.5587 13.8787 36.1213C14.4413 36.6839 15.2044 37 16 37H34C34.7956 37 35.5587 36.6839 36.1213 36.1213C36.6839 35.5587 37 34.7956 37 34ZM29.281 26.281L24.781 30.781C24.7113 30.8508 24.6286 30.9063 24.5375 30.9441C24.4463 30.9819 24.3487 31.0013 24.25 31.0013C24.1513 31.0013 24.0537 30.9819 23.9625 30.9441C23.8714 30.9063 23.7887 30.8508 23.719 30.781L21.469 28.531C21.3282 28.3902 21.2491 28.1992 21.2491 28C21.2491 27.8008 21.3282 27.6098 21.469 27.469C21.6098 27.3282 21.8008 27.2491 22 27.2491C22.1992 27.2491 22.3902 27.3282 22.531 27.469L24.25 29.1895L28.219 25.219C28.3598 25.0782 28.5508 24.9991 28.75 24.9991C28.9492 24.9991 29.1402 25.0782 29.281 25.219C29.4218 25.3598 29.5009 25.5508 29.5009 25.75C29.5009 25.9492 29.4218 26.1402 29.281 26.281Z" fill="white"/>
</g>
<defs>
<clipPath id="clip0_277_1778">
<rect width="24" height="24" fill="white" transform="translate(13 13)"/>
</clipPath>
</defs>
</svg>
