<svg width="29" height="29" viewBox="0 0 29 29" fill="none" xmlns="http://www.w3.org/2000/svg">
<circle cx="14.5" cy="14.5" r="14.5" fill="#8C387C"/>
<path d="M14.5 14.1875C14.0856 14.1875 13.6882 14.0229 13.3951 13.7299C13.1021 13.4368 12.9375 13.0394 12.9375 12.625C12.9375 12.2106 13.1021 11.8132 13.3951 11.5201C13.6882 11.2271 14.0856 11.0625 14.5 11.0625C14.9144 11.0625 15.3118 11.2271 15.6049 11.5201C15.8979 11.8132 16.0625 12.2106 16.0625 12.625C16.0625 12.8302 16.0221 13.0334 15.9436 13.2229C15.865 13.4125 15.7499 13.5848 15.6049 13.7299C15.4598 13.8749 15.2875 13.99 15.0979 14.0686C14.9084 14.1471 14.7052 14.1875 14.5 14.1875ZM14.5 8.25C13.3397 8.25 12.2269 8.71094 11.4064 9.53141C10.5859 10.3519 10.125 11.4647 10.125 12.625C10.125 15.9063 14.5 20.75 14.5 20.75C14.5 20.75 18.875 15.9063 18.875 12.625C18.875 11.4647 18.4141 10.3519 17.5936 9.53141C16.7731 8.71094 15.6603 8.25 14.5 8.25Z" fill="white"/>
</svg>
