<svg width="18" height="21" viewBox="0 0 18 21" fill="none" xmlns="http://www.w3.org/2000/svg">
<path d="M5.75 9C5.75 8.13805 6.09241 7.3114 6.7019 6.7019C7.3114 6.09241 8.13805 5.75 9 5.75C9.86195 5.75 10.6886 6.09241 11.2981 6.7019C11.9076 7.3114 12.25 8.13805 12.25 9C12.25 9.86195 11.9076 10.6886 11.2981 11.2981C10.6886 11.9076 9.86195 12.25 9 12.25C8.13805 12.25 7.3114 11.9076 6.7019 11.2981C6.09241 10.6886 5.75 9.86195 5.75 9Z" fill="white"/>
<path fill-rule="evenodd" clip-rule="evenodd" d="M0.773342 7.877C0.939679 5.86675 1.85557 3.99247 3.33931 2.62598C4.82305 1.2595 6.76622 0.500657 8.78334 0.5H9.21534C11.2325 0.500657 13.1756 1.2595 14.6594 2.62598C16.1431 3.99247 17.059 5.86675 17.2253 7.877C17.4099 10.1214 16.717 12.3499 15.2923 14.094L10.4993 19.956C10.3177 20.1783 10.0889 20.3575 9.82943 20.4806C9.57 20.6036 9.28647 20.6675 8.99934 20.6675C8.71222 20.6675 8.42868 20.6036 8.16926 20.4806C7.90983 20.3575 7.68101 20.1783 7.49934 19.956L2.70734 14.094C1.2823 12.3501 0.589038 10.1215 0.773342 7.877ZM8.99934 4.25C7.73956 4.25 6.53138 4.75045 5.64058 5.64124C4.74979 6.53204 4.24934 7.74022 4.24934 9C4.24934 10.2598 4.74979 11.468 5.64058 12.3588C6.53138 13.2496 7.73956 13.75 8.99934 13.75C10.2591 13.75 11.4673 13.2496 12.3581 12.3588C13.2489 11.468 13.7493 10.2598 13.7493 9C13.7493 7.74022 13.2489 6.53204 12.3581 5.64124C11.4673 4.75045 10.2591 4.25 8.99934 4.25Z" fill="white"/>
</svg>
