<svg width="32" height="32" viewBox="0 0 32 32" fill="none" xmlns="http://www.w3.org/2000/svg">
<circle cx="16" cy="16" r="16" fill="#E8BF40"/>
<path d="M21.0003 16.8332H16.8337V20.9998C16.8337 21.4582 16.4587 21.8332 16.0003 21.8332C15.542 21.8332 15.167 21.4582 15.167 20.9998V16.8332H11.0003C10.542 16.8332 10.167 16.4582 10.167 15.9998C10.167 15.5415 10.542 15.1665 11.0003 15.1665H15.167V10.9998C15.167 10.5415 15.542 10.1665 16.0003 10.1665C16.4587 10.1665 16.8337 10.5415 16.8337 10.9998V15.1665H21.0003C21.4587 15.1665 21.8337 15.5415 21.8337 15.9998C21.8337 16.4582 21.4587 16.8332 21.0003 16.8332Z" fill="white"/>
</svg>
