<svg width="27" height="27" viewBox="0 0 27 27" fill="none" xmlns="http://www.w3.org/2000/svg">
<circle cx="13.5" cy="13.5" r="13" fill="white" stroke="#E9E9E9"/>
<g clip-path="url(#clip0_181_643)">
<path d="M17.2409 19.0272C16.7628 19.0272 16.0912 18.8543 15.0855 18.2924C13.8625 17.6066 12.9166 16.9735 11.7003 15.7603C10.5275 14.5883 9.95682 13.8295 9.1581 12.3761C8.25576 10.735 8.40958 9.87481 8.58152 9.50716C8.78629 9.06775 9.08854 8.80494 9.4792 8.54408C9.7011 8.3987 9.93592 8.27407 10.1807 8.17178C10.2052 8.16125 10.228 8.15121 10.2483 8.14215C10.3695 8.08753 10.5532 8.00498 10.7859 8.09316C10.9412 8.15145 11.0798 8.27074 11.2969 8.48505C11.7419 8.92397 12.3501 9.9015 12.5744 10.3816C12.7251 10.7051 12.8247 10.9187 12.825 11.1583C12.825 11.4387 12.6839 11.655 12.5127 11.8884C12.4806 11.9322 12.4488 11.9741 12.4179 12.0148C12.2315 12.2597 12.1906 12.3305 12.2176 12.4569C12.2722 12.7109 12.6795 13.467 13.3489 14.1349C14.0183 14.8029 14.7526 15.1845 15.0076 15.2388C15.1394 15.267 15.2116 15.2244 15.4644 15.0314C15.5006 15.0037 15.5379 14.9751 15.5768 14.9464C15.8379 14.7522 16.0441 14.6148 16.318 14.6148H16.3195C16.5578 14.6148 16.7618 14.7181 17.0998 14.8886C17.5407 15.111 18.5476 15.7113 18.9892 16.1569C19.204 16.3734 19.3238 16.5115 19.3823 16.6666C19.4705 16.9 19.3875 17.0829 19.3334 17.2054C19.3243 17.2257 19.3143 17.248 19.3037 17.2728C19.2006 17.5171 19.0753 17.7514 18.9292 17.9728C18.6689 18.3622 18.4051 18.6637 17.9647 18.8688C17.7385 18.9757 17.491 19.0299 17.2409 19.0272Z" fill="#8C387C"/>
</g>
<defs>
<clipPath id="clip0_181_643">
<rect width="12.5406" height="12.5406" fill="white" transform="translate(7.66406 7.27051)"/>
</clipPath>
</defs>
</svg>
