<svg width="27" height="27" viewBox="0 0 27 27" fill="none" xmlns="http://www.w3.org/2000/svg">
<circle cx="13.4223" cy="13.4223" r="12.9223" fill="white" stroke="#E9E9E9"/>
<path d="M17.5753 9.32568H9.1976C8.62164 9.32568 8.15563 9.79693 8.15563 10.3729L8.15039 16.6562C8.15039 17.2321 8.62164 17.7034 9.1976 17.7034H17.5753C18.1512 17.7034 18.6225 17.2321 18.6225 16.6562V10.3729C18.6225 9.79693 18.1512 9.32568 17.5753 9.32568ZM17.3658 11.551L13.664 13.8653C13.4964 13.9701 13.2765 13.9701 13.1089 13.8653L9.40704 11.551C9.35454 11.5215 9.30856 11.4817 9.27189 11.434C9.23523 11.3862 9.20863 11.3315 9.19371 11.2732C9.1788 11.2148 9.17587 11.1541 9.18512 11.0946C9.19436 11.0351 9.21558 10.9781 9.24749 10.927C9.2794 10.876 9.32134 10.8319 9.37077 10.7975C9.4202 10.7632 9.47609 10.7392 9.53506 10.727C9.59403 10.7149 9.65486 10.7148 9.71385 10.7268C9.77285 10.7389 9.82879 10.7627 9.87829 10.797L13.3864 12.9909L16.8946 10.797C16.9441 10.7627 17 10.7389 17.059 10.7268C17.118 10.7148 17.1788 10.7149 17.2378 10.727C17.2968 10.7392 17.3527 10.7632 17.4021 10.7975C17.4515 10.8319 17.4935 10.876 17.5254 10.927C17.5573 10.9781 17.5785 11.0351 17.5878 11.0946C17.597 11.1541 17.5941 11.2148 17.5792 11.2732C17.5643 11.3315 17.5377 11.3862 17.501 11.434C17.4643 11.4817 17.4183 11.5215 17.3658 11.551Z" fill="#8C387C"/>
</svg>
