<svg width="41" height="40" viewBox="0 0 41 40" fill="none" xmlns="http://www.w3.org/2000/svg">
<path d="M20.8691 3.75C29.8291 3.75 37.1191 11.04 37.1191 20C37.1191 28.96 29.8291 36.25 20.8691 36.25C11.9091 36.25 4.61914 28.96 4.61914 20C4.61914 11.04 11.9091 3.75 20.8691 3.75ZM20.8691 6.25C13.2604 6.25 7.11914 12.3913 7.11914 20C7.11914 27.6087 13.2604 33.75 20.8691 33.75C28.4779 33.75 34.6191 27.6087 34.6191 20C34.6191 12.3913 28.4779 6.25 20.8691 6.25ZM19.9691 11.9925L21.7691 13.75L16.7691 18.75H29.6191V21.25H16.7691L21.7691 26.25L19.9691 28.0075L12.8616 20.8988L11.9616 19.9987L12.8616 19.0988L19.9704 11.9913L19.9691 11.9925Z" fill="#8C387C"/>
</svg>
