<svg width="27" height="27" viewBox="0 0 27 27" fill="none" xmlns="http://www.w3.org/2000/svg">
<circle cx="13.5" cy="13.5" r="13" fill="white" stroke="#E9E9E9"/>
<path d="M13.4126 13.2794C13.0661 13.2794 12.7338 13.1418 12.4889 12.8968C12.2439 12.6518 12.1062 12.3196 12.1062 11.9731C12.1062 11.6266 12.2439 11.2944 12.4889 11.0494C12.7338 10.8044 13.0661 10.6668 13.4126 10.6668C13.759 10.6668 14.0913 10.8044 14.3363 11.0494C14.5812 11.2944 14.7189 11.6266 14.7189 11.9731C14.7189 12.1446 14.6851 12.3145 14.6194 12.473C14.5538 12.6315 14.4576 12.7755 14.3363 12.8968C14.215 13.0181 14.0709 13.1143 13.9125 13.18C13.754 13.2456 13.5841 13.2794 13.4126 13.2794ZM13.4126 8.31543C12.4425 8.31543 11.5121 8.70079 10.8262 9.38674C10.1402 10.0727 9.75488 11.003 9.75488 11.9731C9.75488 14.7164 13.4126 18.7659 13.4126 18.7659C13.4126 18.7659 17.0702 14.7164 17.0702 11.9731C17.0702 11.003 16.6849 10.0727 15.9989 9.38674C15.313 8.70079 14.3826 8.31543 13.4126 8.31543Z" fill="#8C387C"/>
</svg>
