<svg width="24" height="24" viewBox="0 0 24 24" fill="none" xmlns="http://www.w3.org/2000/svg">
<circle cx="12" cy="12" r="12" fill="#8C387C"/>
<path d="M11.9996 11.7414C11.6566 11.7414 11.3277 11.6052 11.0852 11.3627C10.8427 11.1202 10.7065 10.7913 10.7065 10.4483C10.7065 10.1054 10.8427 9.77647 11.0852 9.53396C11.3277 9.29146 11.6566 9.15522 11.9996 9.15522C12.3425 9.15522 12.6715 9.29146 12.914 9.53396C13.1565 9.77647 13.2927 10.1054 13.2927 10.4483C13.2927 10.6181 13.2593 10.7863 13.1943 10.9432C13.1293 11.1001 13.034 11.2426 12.914 11.3627C12.7939 11.4828 12.6513 11.578 12.4944 11.643C12.3376 11.708 12.1694 11.7414 11.9996 11.7414ZM11.9996 6.82764C11.0393 6.82764 10.1184 7.2091 9.43938 7.88811C8.76037 8.56712 8.37891 9.48806 8.37891 10.4483C8.37891 13.1638 11.9996 17.1725 11.9996 17.1725C11.9996 17.1725 15.6203 13.1638 15.6203 10.4483C15.6203 9.48806 15.2388 8.56712 14.5598 7.88811C13.8808 7.2091 12.9599 6.82764 11.9996 6.82764Z" fill="white"/>
</svg>
