<svg width="41" height="40" viewBox="0 0 41 40" fill="none" xmlns="http://www.w3.org/2000/svg">
<path d="M20.8691 3.75C11.9091 3.75 4.61914 11.04 4.61914 20C4.61914 28.96 11.9091 36.25 20.8691 36.25C29.8291 36.25 37.1191 28.96 37.1191 20C37.1191 11.04 29.8291 3.75 20.8691 3.75ZM20.8691 6.25C28.4779 6.25 34.6191 12.3913 34.6191 20C34.6191 27.6087 28.4779 33.75 20.8691 33.75C13.2604 33.75 7.11914 27.6087 7.11914 20C7.11914 12.3913 13.2604 6.25 20.8691 6.25ZM21.7691 11.9925L19.9691 13.75L24.9691 18.75H12.1191V21.25H24.9691L19.9691 26.25L21.7691 28.0075L28.8766 20.8988L29.7766 19.9987L28.8766 19.0988L21.7679 11.9913L21.7691 11.9925Z" fill="#8C387C"/>
</svg>
